# 3ds Max Wavefront OBJ Exporter v0.99 - (c)2007 guruware
# File Created: 07.02.2023 17:53:28

mtllib solo bancone.mtl

#
# object Layer_00_PANNELLI
#

v  20501.708984 0.000000 -96032.695312
v  20501.708984 0.000000 -96033.679688
v  20501.708984 1.140000 -96032.695312
v  20501.708984 1.140000 -96033.679688
v  20494.472656 0.000000 -96032.695312
v  20494.472656 1.140000 -96032.695312
v  20493.458984 1.140000 -96031.679688
v  20493.458984 0.000000 -96031.679688
v  20493.597656 1.140000 -96032.187500
v  20493.597656 0.000000 -96032.187500
v  20493.966797 1.140000 -96032.554688
v  20493.966797 0.000000 -96032.554688
v  20493.458984 0.000000 -96030.609375
v  20493.458984 1.140000 -96030.609375
v  20492.472656 0.000000 -96030.609375
v  20492.472656 1.140000 -96030.609375
v  20492.472656 0.000000 -96031.679688
v  20492.472656 1.140000 -96031.679688
v  20494.472656 1.140000 -96033.679688
v  20494.472656 0.000000 -96033.679688
v  20493.472656 1.140000 -96033.421875
v  20493.472656 0.000000 -96033.421875
v  20492.742188 1.140000 -96032.679688
v  20492.742188 0.000000 -96032.679688
v  20501.708984 0.000000 -96025.429688
v  20501.708984 0.000000 -96026.414062
v  20501.708984 1.140000 -96025.429688
v  20501.708984 1.140000 -96026.414062
v  20494.472656 0.000000 -96026.414062
v  20494.472656 1.140000 -96026.414062
v  20493.966797 1.140000 -96026.546875
v  20493.966797 0.000000 -96026.546875
v  20493.597656 1.140000 -96026.921875
v  20493.597656 0.000000 -96026.921875
v  20493.458984 1.140000 -96027.429688
v  20493.458984 0.000000 -96027.429688
v  20493.458984 0.000000 -96028.492188
v  20493.458984 1.140000 -96028.492188
v  20492.472656 0.000000 -96028.492188
v  20492.472656 1.140000 -96028.492188
v  20492.472656 0.000000 -96027.429688
v  20492.472656 1.140000 -96027.429688
v  20492.742188 1.140000 -96026.429688
v  20492.742188 0.000000 -96026.429688
v  20493.472656 1.140000 -96025.703125
v  20493.472656 0.000000 -96025.703125
v  20494.472656 1.140000 -96025.429688
v  20494.472656 0.000000 -96025.429688
# 48 vertices

vn 1.000000 0.000000 -0.000000
vn 0.000000 0.000000 1.000000
vn 0.964678 0.000000 0.263431
vn 0.705229 0.000000 0.708980
vn 0.267836 0.000000 0.963465
vn -1.000000 0.000000 -0.000000
vn -0.125825 0.000000 -0.992052
vn -0.249649 0.000000 -0.968336
vn -0.712711 0.000000 -0.701458
vn -0.965543 0.000000 -0.260244
vn 0.000000 0.000000 -1.000000
vn 0.000000 1.000000 -0.000000
vn 0.000000 1.000000 0.000000
vn -0.000000 1.000000 0.000000
vn 0.000000 -1.000000 -0.000000
vn 0.128024 0.000000 -0.991771
vn 0.253942 0.000000 -0.967220
vn 0.712652 0.000000 -0.701517
vn 0.964678 0.000000 -0.263431
vn -0.965543 0.000000 0.260244
vn -0.705209 0.000000 0.709000
vn -0.263755 0.000000 0.964590
vn -0.000000 1.000000 -0.000000
# 23 vertex normals

vt 0.000000 0.000000 0.000000
vt 1.000000 0.000000 0.000000
vt 0.000000 1.000000 0.000000
vt 1.000000 1.000000 0.000000
vt 0.500000 1.000000 0.134766
vt 0.500000 0.000000 0.134766
vt 0.134766 1.000000 0.500000
vt 0.134766 0.000000 0.500000
vt 0.500000 1.000000 0.867188
vt 0.500000 0.000000 0.867188
vt 1.000000 1.000000 1.000000
vt 1.000000 0.000000 1.000000
vt 0.000000 1.000000 1.000000
vt 0.000000 0.000000 1.000000
vt 0.132812 1.000000 0.500000
vt 0.132812 0.000000 0.500000
vt 0.216553 1.000000 0.000000
vt 1.000000 0.679688 0.000000
vt 0.216553 0.679688 0.000000
vt 0.108398 0.912109 0.000000
vt 0.029297 0.673828 0.000000
vt 0.000000 0.347656 0.000000
vt 0.121582 0.513672 0.000000
vt 0.161865 0.632812 0.000000
vt 0.106934 0.000000 0.000000
vt 0.106934 0.347656 0.000000
vt 0.000000 0.679688 0.000000
vt 0.783447 1.000000 0.000000
vt 0.783447 0.679688 0.000000
vt 0.891602 0.912109 0.000000
vt 0.970703 0.673828 0.000000
vt 0.838135 0.632812 0.000000
vt 0.878418 0.513672 0.000000
vt 1.000000 0.347656 0.000000
vt 0.893066 0.347656 0.000000
vt 0.893066 0.000000 0.000000
vt 0.500000 1.000000 0.132812
vt 0.500000 0.000000 0.132812
vt 0.867188 1.000000 0.500000
vt 0.867188 0.000000 0.500000
vt 1.000000 0.320312 0.000000
vt 0.216553 0.000000 0.000000
vt 0.216553 0.320312 0.000000
vt 0.108154 0.085938 0.000000
vt 0.029053 0.326172 0.000000
vt 0.161621 0.365234 0.000000
vt 0.121582 0.486328 0.000000
vt 0.000000 0.652344 0.000000
vt 0.106689 0.652344 0.000000
vt 0.106689 1.000000 0.000000
vt 0.783447 0.000000 0.000000
vt 0.000000 0.320312 0.000000
vt 0.783447 0.320312 0.000000
vt 0.891846 0.085938 0.000000
vt 0.970947 0.326172 0.000000
vt 1.000000 0.652344 0.000000
vt 0.878418 0.486328 0.000000
vt 0.838379 0.365234 0.000000
vt 0.893311 1.000000 0.000000
vt 0.893311 0.652344 0.000000
# 60 texture coords

o Layer_00_PANNELLI
g Layer_00_PANNELLI
usemtl Material__55
s 1
f 1/1/1 2/2/1 3/3/1 
f 3/3/1 2/2/1 4/4/1 
s 2
f 5/1/2 1/2/2 6/3/2 
f 6/3/2 1/2/2 3/4/2 
s 1
f 7/3/3 8/1/3 9/5/3 
f 9/5/3 8/1/3 10/6/3 
s 2
f 9/7/4 10/8/4 11/9/4 
f 11/9/4 10/8/4 12/10/4 
s 1
f 11/9/5 12/10/5 6/11/5 
f 6/11/5 12/10/5 5/12/5 
s 2
f 13/1/1 8/2/1 14/3/1 
f 14/3/1 8/2/1 7/4/1 
s 1
f 15/1/2 13/2/2 16/3/2 
f 16/3/2 13/2/2 14/4/2 
s 2
f 17/1/6 15/2/6 18/3/6 
f 18/3/6 15/2/6 16/4/6 
f 19/13/7 20/14/7 21/9/8 
f 21/9/8 20/14/7 22/10/8 
s 1
f 21/15/9 22/16/9 23/5/9 
f 23/5/9 22/16/9 24/6/9 
s 4
f 23/5/10 24/6/10 18/4/10 
f 18/4/10 24/6/10 17/2/10 
s 2
f 2/1/11 20/2/7 4/3/11 
f 4/3/11 20/2/7 19/4/7 
s 8
f 4/4/12 19/17/12 3/18/12 
f 3/18/12 19/17/12 6/19/12 
f 6/19/12 19/17/12 21/20/13 
f 6/19/12 21/20/13 23/21/14 
f 18/22/14 9/23/14 23/21/14 
f 23/21/14 9/23/14 11/24/12 
f 23/21/14 11/24/12 6/19/12 
f 16/1/12 14/25/12 18/22/14 
f 18/22/14 14/25/12 7/26/13 
f 18/22/14 7/26/13 9/23/14 
f 2/3/15 1/27/15 20/28/15 
f 20/28/15 1/27/15 5/29/15 
f 20/28/15 5/29/15 22/30/15 
f 22/30/15 5/29/15 24/31/15 
f 24/31/15 5/29/15 12/32/15 
f 24/31/15 12/32/15 10/33/15 
f 24/31/15 10/33/15 17/34/15 
f 17/34/15 10/33/15 8/35/15 
f 17/34/15 8/35/15 15/2/15 
f 15/2/15 8/35/15 13/36/15 
s 1
f 25/1/1 26/2/1 27/3/1 
f 27/3/1 26/2/1 28/4/1 
s 2
f 26/1/11 29/2/16 28/3/11 
f 28/3/11 29/2/16 30/4/16 
f 30/3/16 29/1/16 31/37/17 
f 31/37/17 29/1/16 32/38/17 
s 1
f 31/15/18 32/16/18 33/5/18 
f 33/5/18 32/16/18 34/6/18 
s 2
f 33/5/19 34/6/19 35/4/19 
f 35/4/19 34/6/19 36/2/19 
s 1
f 36/1/1 37/2/1 35/3/1 
f 35/3/1 37/2/1 38/4/1 
s 2
f 37/1/11 39/2/11 38/3/11 
f 38/3/11 39/2/11 40/4/11 
s 1
f 39/1/6 41/2/6 40/3/6 
f 40/3/6 41/2/6 42/4/6 
s 2
f 42/3/20 41/1/20 43/5/20 
f 43/5/20 41/1/20 44/6/20 
s 1
f 43/5/21 44/6/21 45/39/21 
f 45/39/21 44/6/21 46/40/21 
s 2
f 45/37/22 46/38/22 47/4/22 
f 47/4/22 46/38/22 48/2/22 
s 4
f 48/1/2 25/2/2 47/3/2 
f 47/3/2 25/2/2 27/4/2 
s 8
f 27/2/12 28/41/12 47/42/12 
f 47/42/12 28/41/12 30/43/13 
f 47/42/12 30/43/13 45/44/12 
f 45/44/12 30/43/13 43/45/23 
f 43/45/23 30/43/13 31/46/13 
f 43/45/23 31/46/13 33/47/23 
f 43/45/23 33/47/23 42/48/23 
f 42/48/23 33/47/23 35/49/12 
f 42/48/23 35/49/12 40/3/12 
f 40/3/12 35/49/12 38/50/12 
f 25/1/15 48/51/15 26/52/15 
f 26/52/15 48/51/15 29/53/15 
f 29/53/15 48/51/15 46/54/15 
f 29/53/15 46/54/15 44/55/15 
f 41/56/15 34/57/15 44/55/15 
f 44/55/15 34/57/15 32/58/15 
f 44/55/15 32/58/15 29/53/15 
f 39/4/15 37/59/15 41/56/15 
f 41/56/15 37/59/15 36/60/15 
f 41/56/15 36/60/15 34/57/15 
# 88 faces

